<mxfile host="app.diagrams.net" modified="2021-06-01T00:58:18.897Z" agent="5.0 (Windows NT 10.0; Win64; x64) AppleWebKit/537.36 (KHTML, like Gecko) Chrome/91.0.4472.77 Safari/537.36" etag="TYq8kP8epu1wSfDlYNLR" version="14.7.3" type="github">
  <diagram id="r0_OtTjxxLFYF3EnkZ2t" name="Page-1">
    <mxGraphModel dx="1038" dy="547" grid="1" gridSize="10" guides="1" tooltips="1" connect="1" arrows="1" fold="1" page="1" pageScale="1" pageWidth="827" pageHeight="1169" math="0" shadow="0">
      <root>
        <mxCell id="0" />
        <mxCell id="1" parent="0" />
        <mxCell id="82LwOxKId_zlGsn1i3E0-1" value="Origi data" style="shape=cylinder3;whiteSpace=wrap;html=1;boundedLbl=1;backgroundOutline=1;size=15;fillColor=#FFD966;" vertex="1" parent="1">
          <mxGeometry x="210" y="290" width="130" height="80" as="geometry" />
        </mxCell>
        <mxCell id="82LwOxKId_zlGsn1i3E0-2" value="Origi data" style="shape=cylinder3;whiteSpace=wrap;html=1;boundedLbl=1;backgroundOutline=1;size=15;fillColor=#FFD966;" vertex="1" parent="1">
          <mxGeometry x="210" y="290" width="130" height="80" as="geometry" />
        </mxCell>
        <mxCell id="82LwOxKId_zlGsn1i3E0-3" value="Origi data" style="shape=cylinder3;whiteSpace=wrap;html=1;boundedLbl=1;backgroundOutline=1;size=15;fillColor=#FFD966;" vertex="1" parent="1">
          <mxGeometry x="480" y="290" width="130" height="80" as="geometry" />
        </mxCell>
      </root>
    </mxGraphModel>
  </diagram>
</mxfile>
